{"title":"The Da Vinci Code 2006 720p x264 Extended MP4 Multisubs AAC-CC","uid":10933987,"size":4139911968,"categoryP":"video","categoryS":"hd___movies","magnet":"?xt=urn:btih:d4e31f9ac6b3eb3a8bfb9ac9f516a192a9306fce&amp;dn=The+Da+Vinci+Code+2006+720p+x264+Extended+MP4+Multisubs+AAC-CC&amp;tr=udp%3A%2F%2Ftracker.openbittorrent.com%3A80&amp;tr=udp%3A%2F%2Fopen.demonii.com%3A1337&amp;tr=udp%3A%2F%2Ftracker.coppersurfer.tk%3A6969&amp;tr=udp%3A%2F%2Fexodus.desync.com%3A6969","seeders":19,"leechers":3,"uploader":"Caveman44","files":-1,"time":1409420215,"description":" &lt;a href=&quot;http://www.imdb.com/title/tt0382625&quot; rel=&quot;nofollow&quot; target=&quot;_NEW&quot;&gt;http://www.imdb.com/title/tt0382625&lt;/a&gt;\n\nSource: Da Vinci Code Extended Cut 2006 BluRay 720p DTS x264-CHD Thanks!\n\nSubs: Arabic, Brazilian, Bulgarian, Danish, Dutch, English, Estonian, Farsi Persian, Finnish, French, German, Greek, Hungarian, Norwegian, Portuguese, Romanian, Servian, Spanish, Swedish, Turkish, Vietnamese\n\nSample and Screens included.\n\nGeneral\nComplete name                            : The Da Vinci Code 2006 720p x264 Extended MP4 Multisubs AAC-CC.mp4\nFormat                                   : MPEG-4\nFormat profile                           : Base Media\nCodec ID                                 : isom\nFile size                                : 3.81 GiB\nDuration                                 : 2h 54mn\nOverall bit rate mode                    : Variable\nOverall bit rate                         : 3 125 Kbps\nEncoded date                             : UTC 2014-08-27 17:06:29\nTagged date                              : UTC 2014-08-27 17:06:29\nWriting application                      : Yamb 2.1.0.0 \n\nVideo\nID                                       : 1\nFormat                                   : AVC\nFormat/Info                              : Advanced Video Codec\nFormat profile                           : &lt;a class=&quot;__cf_email__&quot; href=&quot;/cdn-cgi/l/email-protection&quot; data-cfemail=&quot;d199b8b6b9919de5ffe0&quot;&gt;[email&amp;#160;protected]&lt;/a&gt;&lt;script cf-hash='f9e31' type=&quot;text/javascript&quot;&gt;\n/* &lt;![CDATA[ */!function(){try{var t=&quot;currentScript&quot;in document?document.currentScript:function(){for(var t=document.getElementsByTagName(&quot;script&quot;),e=t.length;e--;)if(t[e].getAttribute(&quot;cf-hash&quot;))return t[e]}();if(t&amp;&amp;t.previousSibling){var e,r,n,i,c=t.previousSibling,a=c.getAttribute(&quot;data-cfemail&quot;);if(a){for(e=&quot;&quot;,r=parseInt(a.substr(0,2),16),n=2;a.length-n;n+=2)i=parseInt(a.substr(n,2),16)^r,e+=String.fromCharCode(i);e=document.createTextNode(e),c.parentNode.replaceChild(e,c)}}}catch(u){}}();/* ]]&gt; */&lt;/script&gt;\nFormat settings, CABAC                   : Yes\nFormat settings, ReFrames                : 5 frames\nCodec ID                                 : avc1\nCodec ID/Info                            : Advanced Video Coding\nDuration                                 : 2h 54mn\nBit rate                                 : 2 798 Kbps\nMaximum bit rate                         : 26.5 Mbps\nWidth                                    : 1 280 pixels\nHeight                                   : 528 pixels\nDisplay aspect ratio                     : 2.40:1\nFrame rate mode                          : Variable\nFrame rate                               : 23.976 fps\nMinimum frame rate                       : 13.653 fps\nMaximum frame rate                       : 24.390 fps\nColor space                              : YUV\nChroma subsampling                       : 4:2:0\nBit depth                                : 8 bits\nScan type                                : Progressive\nBits/(Pixel*Frame)                       : 0.173\nStream size                              : 3.34 GiB (88%)\nWriting library                          : x264 core 112\nEncoding settings                        : cabac=1 / ref=5 / deblock=1:0:0 / analyse=0x3:0x113 / me=hex / subme=7 / psy=1 / psy_rd=1.00:0.00 / mixed_ref=1 / me_range=16 / chroma_me=1 / trellis=1 / 8x8dct=1 / cqm=0 / deadzone=21,11 / fast_pskip=1 / chroma_qp_offset=-2 / threads=3 / sliced_threads=0 / nr=0 / decimate=1 / interlaced=0 / constrained_intra=0 / bframes=5 / b_pyramid=2 / b_adapt=2 / b_bias=0 / direct=1 / weightb=1 / open_gop=0 / weightp=2 / keyint=240 / keyint_min=23 / scenecut=40 / intra_refresh=0 / rc_lookahead=50 / rc=abr / mbtree=1 / bitrate=2798 / ratetol=1.0 / qcomp=0.60 / qpmin=3 / qpmax=51 / qpstep=4 / ip_ratio=1.40 / aq=1:1.00\nEncoded date                             : UTC 2014-08-27 20:06:30\nTagged date                              : UTC 2014-08-27 17:12:52\nColor primaries                          : BT.709\nTransfer characteristics                 : BT.709\nMatrix coefficients                      : BT.709\n\nAudio\nID                                       : 2\nFormat                                   : AAC\nFormat/Info                              : Advanced Audio Codec\nFormat profile                           : LC\nCodec ID                                 : 40\nDuration                                 : 2h 54mn\nBit rate mode                            : Variable\nBit rate                                 : 384 Kbps\nMaximum bit rate                         : 534 Kbps\nChannel(s)                               : 6 channels\nChannel positions                        : Front: L C R, Side: L R, LFE\nSampling rate                            : 48.0 KHz\nCompression mode                         : Lossy\nDelay relative to video                  : 83ms\nStream size                              : 480 MiB (12%)\nLanguage                                 : English\nEncoded date                             : UTC 2014-08-27 17:11:46\nTagged date                              : UTC 2014-08-27 17:12:52\n\nEnjoy...\n\nRequested by tabishali","torrent":{"xt":"urn:btih:d4e31f9ac6b3eb3a8bfb9ac9f516a192a9306fce","amp;dn":"The+Da+Vinci+Code+2006+720p+x264+Extended+MP4+Multisubs+AAC-CC","amp;tr":["udp%3A%2F%2Ftracker.openbittorrent.com%3A80","udp%3A%2F%2Fopen.demonii.com%3A1337","udp%3A%2F%2Ftracker.coppersurfer.tk%3A6969","udp%3A%2F%2Fexodus.desync.com%3A6969"],"infoHash":"d4e31f9ac6b3eb3a8bfb9ac9f516a192a9306fce","infoHashBuffer":{"type":"Buffer","data":[212,227,31,154,198,179,235,58,139,251,154,201,245,22,161,146,169,48,111,206]},"announce":[],"urlList":[]}}